<?xml version="1.0" encoding="utf-8"?>
<!-- Generator: Adobe Illustrator 21.0.0, SVG Export Plug-In . SVG Version: 6.00 Build 0)  -->
<svg version="1.1" id="Layer_1" xmlns="http://www.w3.org/2000/svg" xmlns:xlink="http://www.w3.org/1999/xlink" x="0px" y="0px"
	 viewBox="0 0 77 22" style="enable-background:new 0 0 77 22;" xml:space="preserve">
<style type="text/css">
	.st0{fill:#51A59D;}
	.st1{fill:#5D8C89;}
	.st2{fill:#7BBFBA;}
</style>
<g>
	<path class="st0" d="M46.3,12.9c0,0.1,0,0.2-0.1,0.3c-0.1,0-0.1,0.1-0.3,0.1c-0.5,0.1-1.1,0.1-1.7,0.2c-0.6,0-1.1,0.1-1.7,0.1v2
		h4.1c0.1,0,0.2,0,0.3,0.1c0.1,0,0.1,0.1,0.1,0.3v1.7c0,0.1,0,0.2-0.1,0.3c-0.1,0-0.1,0.1-0.3,0.1H36c-0.1,0-0.2,0-0.3-0.1
		c-0.1,0-0.1-0.1-0.1-0.3v-1.7c0-0.1,0-0.2,0.1-0.3c0.1,0,0.1-0.1,0.3-0.1h4.1v-1.9c-0.2,0-0.5,0-0.7,0c-0.2,0-0.5,0-0.7,0
		c-0.8,0-1.4-0.2-1.7-0.7c-0.4-0.5-0.5-1.3-0.5-2.3V5.2c0-0.1,0-0.2,0.1-0.3c0.1,0,0.1-0.1,0.3-0.1h9c0.1,0,0.2,0,0.3,0.1
		c0.1,0,0.1,0.1,0.1,0.3v1.7c0,0.1,0,0.2-0.1,0.3c-0.1,0-0.1,0.1-0.3,0.1H39v3.1c0,0.3,0.1,0.6,0.2,0.7c0.1,0.2,0.4,0.2,0.7,0.2
		c0.9,0,1.9-0.1,2.9-0.1c1-0.1,2.1-0.1,3.1-0.3c0.1,0,0.2,0,0.2,0.1c0,0.1,0.1,0.2,0.1,0.3L46.3,12.9z"/>
	<path class="st0" d="M48,13.2c0-0.1,0-0.2,0.1-0.3c0.1,0,0.1-0.1,0.3-0.1H59c0.1,0,0.2,0,0.3,0.1c0.1,0,0.1,0.1,0.1,0.3v1.7
		c0,0.1,0,0.2-0.1,0.3c-0.1,0-0.1,0.1-0.3,0.1h-4.1v2.7c0,0.1,0,0.2-0.1,0.3c-0.1,0-0.1,0.1-0.3,0.1h-1.8c-0.1,0-0.2,0-0.3-0.1
		c-0.1,0-0.1-0.1-0.1-0.3v-2.7h-4.1c-0.1,0-0.2,0-0.3-0.1C48,15.1,48,15,48,14.8V13.2z M53.7,4.7c0.9,0,1.7,0.1,2.3,0.3
		c0.6,0.2,1.1,0.5,1.5,0.8c0.4,0.3,0.7,0.7,0.8,1.2c0.2,0.4,0.3,0.9,0.3,1.4c0,0.5-0.1,0.9-0.3,1.4c-0.2,0.4-0.5,0.8-0.8,1.2
		c-0.4,0.3-0.9,0.6-1.5,0.8S54.6,12,53.7,12s-1.7-0.1-2.3-0.3c-0.6-0.2-1.1-0.5-1.5-0.8c-0.4-0.3-0.7-0.7-0.8-1.2
		c-0.2-0.4-0.3-0.9-0.3-1.4c0-0.5,0.1-0.9,0.3-1.4c0.2-0.4,0.5-0.8,0.8-1.2c0.4-0.3,0.9-0.6,1.5-0.8C52,4.8,52.8,4.7,53.7,4.7z
		 M53.7,9.7c0.3,0,0.6,0,0.9,0c0.3,0,0.6-0.1,0.8-0.2c0.2-0.1,0.4-0.2,0.6-0.4c0.1-0.2,0.2-0.4,0.2-0.7c0-0.3-0.1-0.5-0.2-0.7
		c-0.1-0.2-0.3-0.3-0.6-0.4c-0.2-0.1-0.5-0.2-0.8-0.2S54,7,53.7,7c-0.3,0-0.6,0-0.9,0s-0.6,0.1-0.8,0.2c-0.2,0.1-0.4,0.2-0.6,0.4
		c-0.1,0.2-0.2,0.4-0.2,0.7c0,0.3,0.1,0.5,0.2,0.7c0.1,0.2,0.3,0.3,0.6,0.4c0.2,0.1,0.5,0.2,0.8,0.2C53.1,9.7,53.4,9.7,53.7,9.7z"/>
	<path class="st0" d="M67.5,15.6c0,0.6-0.1,1-0.3,1.3c-0.2,0.3-0.6,0.4-1,0.4h-4.2c-0.5,0-0.8-0.1-1-0.4c-0.2-0.3-0.3-0.7-0.3-1.3
		V5.2c0-0.1,0-0.2,0.1-0.3c0.1,0,0.1-0.1,0.3-0.1h6.3c0.1,0,0.2,0,0.3,0.1c0.1,0,0.1,0.1,0.1,0.3V15.6z M64.8,15.1
		c0.1,0,0.2,0,0.3-0.1c0.1-0.1,0.1-0.2,0.1-0.4V7h-2.3v7.6c0,0.2,0,0.3,0.1,0.4c0.1,0.1,0.1,0.1,0.3,0.1H64.8z M69.2,18
		c-0.1,0-0.2,0-0.3-0.1c-0.1,0-0.1-0.1-0.1-0.3V5.2c0-0.1,0-0.2,0.1-0.3c0.1,0,0.1-0.1,0.3-0.1H71c0.1,0,0.2,0,0.3,0.1
		c0.1,0,0.1,0.1,0.1,0.3v12.4c0,0.1,0,0.2-0.1,0.3C71.2,18,71.1,18,71,18H69.2z"/>
</g>
<g>
	<path class="st1" d="M8.1,9c0,0.1,0,0.3,0,0.3c0,0.1,0,0.2,0,0.2c0,0.1,0,0.1,0,0.1c0,0,0.1,0.1,0.1,0.1c0.1,0.1,0.1,0.1,0.2,0.2
		c0.1,0,0.1,0.1,0.2,0.2c0.1,0.1,0.1,0.1,0.2,0.2c0,0,0.1,0.1,0.1,0.1s0.1,0.1,0.1,0.1c0.1,0.1,0.2,0.2,0.3,0.4
		c0.1,0.1,0.2,0.3,0.2,0.4c0,0.1,0,0.1,0,0.2c0,0.1,0,0.1-0.1,0.2c-0.1,0.1-0.2,0.1-0.3,0.1c-0.1,0-0.2,0-0.3-0.1
		c-0.1-0.1-0.2-0.1-0.2-0.2c-0.1-0.1-0.2-0.2-0.3-0.3C8.2,11.2,8.1,11.1,8,11c-0.1-0.1-0.1-0.1-0.2-0.2c-0.1-0.1-0.1-0.2-0.2-0.2
		l-0.2,0.2c0,0-0.1,0.1-0.1,0.1c0,0-0.1,0.1-0.1,0.1c-0.1,0.1-0.1,0.2-0.2,0.2c-0.1,0.1-0.2,0.2-0.2,0.2c-0.2,0.2-0.4,0.3-0.6,0.3
		c0,0,0,0-0.1,0c0,0,0,0-0.1,0c-0.1,0-0.2-0.1-0.2-0.2c0-0.1,0-0.1,0-0.2c0-0.1,0-0.2,0.1-0.2c0-0.1,0.1-0.1,0.1-0.2
		C6,10.9,6,10.9,6.1,10.8c0-0.1,0.1-0.1,0.2-0.2s0.2-0.2,0.3-0.3c0.1-0.1,0.2-0.2,0.3-0.3C7,9.8,7,9.8,7,9.7V9H6.5
		C6.5,9,6.4,9,6.3,9C6.2,9,6.2,9,6.1,9C6,9,5.9,9,5.9,8.9S5.7,8.8,5.7,8.8c0-0.1,0-0.1-0.1-0.2c0-0.1,0-0.2,0-0.2
		c0-0.1,0.1-0.1,0.1-0.2C5.9,8.1,6,8.1,6,8.1c0,0,0.1,0,0.1,0c0.1,0,0.2,0,0.2,0c0.1,0,0.2,0,0.2,0c0.1,0,0.1,0,0.1,0h1.8
		c0.2,0,0.4,0,0.5,0c0.1,0,0.3,0.1,0.3,0.2c0,0,0,0.1,0.1,0.1c0,0.1,0,0.1,0,0.2c0,0.1,0,0.1,0,0.2c0,0.1-0.1,0.1-0.1,0.1
		c0,0-0.1,0-0.1,0.1C9.2,9,9.1,9,9.1,9C9,9,8.9,9,8.9,9C8.8,9,8.7,9,8.6,9H8.1z M11.1,13.9c0.1,0,0.1,0,0.2,0.1c0,0,0.1,0.1,0.1,0.1
		c0,0,0.1,0.1,0.1,0.2c0,0.2,0,0.4-0.1,0.5c-0.1,0.1-0.1,0.1-0.2,0.1c-0.1,0-0.1,0-0.1,0H7c-0.2,0-0.4,0-0.5-0.1
		c-0.1-0.1-0.2-0.2-0.2-0.3v-1.2c0,0,0-0.1,0-0.1c0-0.1,0-0.1,0-0.2c0-0.1,0-0.1,0-0.2c0-0.1,0-0.1,0-0.1c0-0.1,0.1-0.2,0.2-0.3
		c0.1-0.1,0.2-0.1,0.3-0.1c0,0,0.1,0,0.1,0c0,0,0.1,0,0.1,0c0.1,0,0.1,0.1,0.2,0.1c0,0.1,0.1,0.1,0.1,0.2c0,0.1,0,0.1,0,0.2
		c0,0.1,0,0.1,0,0.2c0,0,0,0.1,0,0.2s0,0.2,0,0.3c0,0.1,0,0.2,0,0.3s0,0.1,0,0.1c0,0,0.1,0,0.1,0c0.1,0,0.2,0,0.4,0
		c0.2,0,0.3,0,0.4,0c0.1,0,0.2,0,0.2,0H11.1z M11.3,11.6c0,0.1,0,0.1,0,0.2c0,0.1,0,0.1-0.1,0.2c0,0.1-0.1,0.1-0.1,0.1
		c-0.1,0-0.1,0.1-0.2,0.1c-0.1,0-0.2,0-0.3-0.1c-0.1,0-0.1-0.1-0.1-0.2c0-0.1-0.1-0.2-0.1-0.3c0-0.1,0-0.2,0-0.3c0-0.1,0-0.2,0-0.3
		c0-0.1,0-0.2,0-0.3c0-0.1,0-0.3,0-0.4c0-0.2,0-0.3,0-0.5c0-0.2,0-0.3,0-0.5c0-0.2,0-0.3,0-0.4V8.8c0-0.1,0-0.1,0-0.2
		c0-0.1,0-0.1,0-0.2c0-0.1,0.1-0.2,0.1-0.3c0-0.1,0.1-0.1,0.2-0.1c0.1,0,0.2,0,0.2,0c0.2,0,0.3,0.1,0.3,0.2c0,0.1,0,0.2,0,0.3
		c0,0.1,0,0.2,0,0.2V11.6z"/>
	<path class="st1" d="M17.3,13.4C17.3,13.4,17.3,13.4,17.3,13.4C17.3,13.4,17.3,13.4,17.3,13.4c0.2,0,0.3,0,0.3,0.1
		c0.1,0,0.1,0.1,0.2,0.1c0.1,0.1,0.1,0.2,0.1,0.3c0,0.1,0,0.1,0,0.2c0,0.1,0,0.1-0.1,0.2c0,0-0.1,0.1-0.2,0.1c-0.1,0-0.1,0-0.2,0
		c-0.1,0-0.1,0-0.2,0c0,0-0.1,0-0.1,0h-4.4c0,0-0.1,0-0.1,0c0,0-0.1,0-0.1,0c-0.1,0-0.2,0-0.4,0c-0.1,0-0.2-0.1-0.3-0.1
		c-0.1-0.1-0.2-0.2-0.2-0.4c0-0.1,0-0.2,0.1-0.3c0-0.1,0.1-0.2,0.2-0.2c0.1,0,0.2-0.1,0.3-0.1c0.1,0,0.2,0,0.3,0h0c0.5,0,1,0,1.5,0
		l0-0.8h-0.8c-0.1,0-0.2,0-0.3,0c-0.1,0-0.2,0-0.3,0c-0.1,0-0.2-0.1-0.3-0.2c-0.1-0.1-0.1-0.2-0.1-0.4c0-0.1,0-0.1,0-0.3
		c0-0.1,0-0.2,0-0.4s0-0.2,0-0.4c0-0.1,0-0.2,0-0.2v-0.2c0-0.1,0-0.1,0-0.2s0-0.1,0.1-0.2c0.1-0.1,0.2-0.2,0.3-0.2
		c0.1,0,0.2,0,0.4,0c0,0,0.1,0,0.1,0c0.1,0,0.1,0,0.1,0h2.8V9.2h-2.8c0,0-0.1,0-0.1,0c0,0-0.1,0-0.1,0c0,0-0.1,0-0.1,0
		c0,0-0.1,0-0.1,0c-0.1,0-0.2,0-0.3,0c-0.1,0-0.2-0.1-0.2-0.2c-0.1-0.1-0.1-0.3-0.1-0.4c0-0.1,0.1-0.2,0.2-0.2
		c0.1-0.1,0.2-0.1,0.2-0.1c0,0,0.1,0,0.1,0s0.1,0,0.1,0h0.3c0.1,0,0.2,0,0.3,0c0.1,0,0.3,0,0.4,0s0.3,0,0.4,0c0.1,0,0.3,0,0.4,0h1.6
		c0.1,0,0.2,0,0.3,0c0.1,0,0.2,0,0.3,0.1c0.1,0,0.2,0.1,0.2,0.3c0,0.1,0.1,0.3,0.1,0.4V10c0,0,0,0.1,0,0.2c0,0.1,0,0.2,0,0.2
		c0,0.1,0,0.2-0.1,0.2c0,0.1-0.1,0.1-0.1,0.2c-0.1,0-0.1,0.1-0.2,0.1c-0.1,0-0.1,0-0.2,0h-3.1v0.7h3.1c0,0,0.1,0,0.1,0
		c0,0,0.1,0,0.1,0c0.1,0,0.1,0,0.2,0.1c0.1,0,0.1,0.1,0.1,0.2c0,0.1,0,0.2,0,0.3c0,0.1-0.1,0.2-0.2,0.2c-0.1,0-0.1,0-0.2,0.1
		c-0.1,0-0.1,0-0.2,0h-1.3l0,0.8c0.1,0,0.2,0,0.3,0c0.1,0,0.2,0,0.3,0c0.1,0,0.2,0,0.3,0c0.1,0,0.2,0,0.3,0c0.1,0,0.2,0,0.3,0
		C17.1,13.3,17.2,13.3,17.3,13.4z"/>
	<path class="st1" d="M20.7,8.1C20.7,8.1,20.7,8.1,20.7,8.1c0.1,0,0.2,0,0.2,0c0.1,0,0.1,0,0.2,0c0.2,0,0.3,0,0.4,0.1
		c0.1,0.1,0.2,0.1,0.2,0.2c0.1,0.1,0.1,0.2,0.1,0.3c0,0.1,0,0.2,0,0.3v4.4c0,0,0,0,0,0.1c0,0.1,0,0.1,0,0.2c0,0.1,0,0.2,0,0.3
		c0,0.1,0,0.2-0.1,0.2c0,0.1-0.1,0.1-0.2,0.2c-0.1,0-0.2,0.1-0.2,0.1c-0.1,0-0.2,0-0.2,0c-0.1,0-0.1,0-0.1,0h-1.4c0,0-0.1,0-0.2,0
		c-0.1,0-0.2,0-0.3-0.1c-0.1,0-0.2-0.1-0.3-0.1c-0.1-0.1-0.2-0.2-0.2-0.3c-0.1-0.2-0.1-0.4-0.1-0.6c0-0.2,0-0.4,0-0.6V9.7
		c0,0,0-0.1,0-0.2c0-0.1,0-0.2,0-0.3c0-0.1,0-0.3,0-0.4c0-0.1,0-0.2,0.1-0.3c0.1-0.1,0.1-0.2,0.2-0.3c0.1-0.1,0.2-0.1,0.3-0.1
		c0.1,0,0.2,0,0.3,0c0.1,0,0.2,0,0.3,0c0.2,0,0.3,0,0.5,0C20.4,8.1,20.6,8.1,20.7,8.1z M19.6,13.2c0,0,0,0.1,0.1,0.1
		c0,0,0.1,0.1,0.1,0.1l0.7,0c0.1,0,0.1,0,0.2,0c0.1,0,0.1,0,0.2-0.1c0.1,0,0.1-0.1,0.1-0.2c0-0.1,0-0.2,0-0.3v-0.1
		c0-0.1,0-0.1,0-0.2c0-0.1,0-0.1,0-0.2c0-0.1,0-0.1,0-0.2c0-0.1,0-0.1,0-0.2v-2.1c0-0.1,0-0.1,0-0.2c0-0.1,0-0.1,0-0.2
		c0-0.1,0-0.1,0-0.2c0-0.1,0-0.2-0.1-0.2c-0.1,0-0.1,0-0.1,0h0l-0.7,0c-0.1,0-0.2,0-0.3,0.1c-0.1,0-0.1,0.1-0.1,0.2c0,0,0,0.1,0,0.1
		c0,0.1,0,0.1,0,0.2c0,0.1,0,0.1,0,0.2c0,0.1,0,0.1,0,0.1V13.2z M24.1,10.6C24.1,10.6,24.1,10.6,24.1,10.6c0.1,0,0.1,0,0.1,0
		c0,0,0.1,0,0.1,0c0,0,0.1,0,0.1,0c0.1,0,0.1,0,0.2,0.1c0.1,0,0.1,0.1,0.1,0.1c0,0.1,0.1,0.1,0.1,0.2c0,0,0,0.1,0,0.1
		c0,0,0,0.1,0,0.1c0,0,0,0.1,0,0.1c0,0.1,0,0.1-0.1,0.1c-0.1,0.1-0.1,0.1-0.2,0.1c-0.1,0-0.2,0-0.3,0c-0.1,0-0.2,0-0.3,0
		c0,0,0,0,0,0h0l0,0v0c0,0.1,0,0.2,0,0.2s0,0.2,0,0.3c0,0.1,0,0.2,0,0.3c0,0.1,0,0.2,0,0.3c0,0.3,0,0.6,0,0.9v0.1c0,0.1,0,0.2,0,0.2
		c0,0.1,0,0.2,0,0.3c0,0.1,0,0.2-0.1,0.2c0,0.1-0.1,0.1-0.1,0.2c-0.1,0.1-0.1,0.1-0.2,0.1l0,0c-0.1,0-0.2,0-0.3-0.1
		c-0.1-0.1-0.1-0.2-0.2-0.3s-0.1-0.2-0.1-0.3s0-0.2,0-0.3V8.7c0,0,0,0,0-0.1s0-0.1,0-0.2c0-0.1,0-0.1,0.1-0.2c0-0.1,0.1-0.1,0.1-0.2
		C23,8.1,23,8,23.1,8c0.1,0,0.1,0,0.2,0c0.1,0,0.2,0,0.3,0.1c0.1,0.1,0.1,0.2,0.1,0.3c0,0.1,0,0.2,0,0.3c0,0,0,0.1,0,0.1
		c0,0.1,0,0.2,0,0.3c0,0.1,0,0.2,0,0.3c0,0.1,0,0.1,0,0.2c0,0.1,0,0.1,0,0.2c0,0,0,0.1,0,0.1c0,0,0,0.1,0,0.1v0.5c0,0,0,0.1,0,0.1
		c0,0,0,0.1,0,0.1c0,0,0,0,0.1,0s0.1,0,0.1,0C24,10.6,24,10.6,24.1,10.6L24.1,10.6z"/>
	<path class="st1" d="M29.5,10.6v0.8c0,0.1,0,0.1,0,0.2c0,0.1,0,0.1-0.1,0.2c0,0.1-0.1,0.1-0.1,0.2c0,0-0.1,0.1-0.1,0.1
		c0,0-0.1,0-0.1,0c-0.1,0-0.2,0-0.2-0.1c-0.1,0-0.1-0.1-0.1-0.1c0-0.1-0.1-0.1-0.1-0.1c0,0,0-0.1,0-0.2v-1h-0.2c-0.1,0-0.2,0-0.3,0
		c-0.1,0-0.2-0.1-0.2-0.2c0,0.1,0,0.1,0,0.2c0,0.1,0,0.1,0,0.2c0,0.1,0,0.3,0,0.4c0,0.1,0,0.3-0.1,0.4c0,0.1-0.1,0.1-0.1,0.2
		c-0.1,0-0.1,0.1-0.2,0.1c-0.1,0-0.1,0-0.2,0c-0.1,0-0.1-0.1-0.2-0.2C27,11.4,27,11.3,27,11.1c0-0.1,0-0.3,0-0.5h-1.5c0,0,0,0-0.1,0
		c-0.1,0-0.1,0-0.1-0.1c0-0.1,0-0.2,0-0.2c0-0.1,0-0.2,0-0.2c0-0.1,0.1-0.1,0.1-0.1c0,0,0.1,0,0.1,0c0,0,0.1,0,0.1,0
		c0,0,0.1,0,0.1,0c0.1,0,0.3,0,0.4,0c0.2,0,0.3,0,0.4,0c0.1,0,0.2,0,0.2,0c0.1,0,0.2,0,0.2,0c0-0.1,0-0.2,0-0.3c0-0.1,0-0.2,0-0.3
		c-0.1,0-0.3,0-0.4,0c-0.1,0-0.3,0-0.4,0c-0.1,0-0.3,0-0.4,0c-0.1,0-0.3,0-0.4,0c-0.1,0-0.1-0.1-0.2-0.2c0-0.1-0.1-0.2-0.1-0.4
		c0-0.1,0-0.2,0.1-0.3c0.1-0.1,0.1-0.1,0.2-0.1c0.1,0,0.2-0.1,0.2-0.1c0.1,0,0.1,0,0.2,0c0.1,0,0.1,0,0.2,0c0.1,0,0.1,0,0.2,0h0.5
		c0,0,0.1,0,0.1,0c0,0,0,0,0.1,0h0.2c0,0,0.1,0,0.1,0c0,0,0.1,0,0.1,0c0,0,0.1,0,0.1,0c0,0,0.1,0,0.1,0c0.1,0,0.1,0,0.1,0
		c0,0,0,0,0,0c0,0,0,0,0,0c0,0,0.1,0.1,0.1,0.1c0,0,0.1,0.1,0.1,0.1c0,0.1,0.1,0.2,0.1,0.3c0,0.1,0,0.2,0,0.3c0,0.1,0,0.2,0,0.4
		c0,0.1,0,0.3,0,0.4c0.1-0.1,0.1-0.1,0.3-0.1c0,0,0.1,0,0.2,0c0.1,0,0.2,0,0.3,0V8.6c0,0,0-0.1,0-0.2c0-0.1,0-0.2,0.1-0.3
		C28.8,8.1,28.9,8,29,8c0.2,0,0.3,0,0.4,0.1c0,0,0.1,0.1,0.1,0.1c0,0,0,0.1,0,0.1c0,0.1,0,0.1,0,0.2c0,0.1,0,0.1,0,0.2L29.5,10.6z
		 M29.5,13c0.2,0.2,0.4,0.3,0.6,0.5c0.2,0.2,0.4,0.3,0.6,0.5c0.1,0.1,0.1,0.1,0.2,0.2c0.1,0.1,0.1,0.1,0.1,0.2c0,0.1,0,0.2,0,0.3
		c0,0.1-0.1,0.2-0.1,0.2c-0.1,0.1-0.2,0.1-0.3,0.1c-0.1,0-0.2,0-0.3-0.1c-0.2-0.1-0.4-0.2-0.6-0.3c-0.2-0.1-0.4-0.2-0.5-0.4
		C29.1,14.1,29,14,29,13.9c-0.1-0.1-0.2-0.1-0.2-0.2c-0.1,0-0.1-0.1-0.2-0.2c-0.1-0.1-0.1-0.1-0.2-0.1c-0.1,0-0.1,0-0.2,0.1
		c0,0-0.1,0.1-0.1,0.1c-0.1,0-0.1,0.1-0.2,0.2c-0.1,0.1-0.1,0.1-0.2,0.2c-0.1,0.1-0.3,0.3-0.4,0.4c-0.2,0.1-0.3,0.2-0.5,0.3
		c-0.1,0-0.1,0.1-0.2,0.1c-0.1,0-0.1,0.1-0.2,0.1c-0.1,0-0.1,0-0.2,0c-0.1,0-0.1,0-0.2-0.1c-0.1,0-0.1-0.1-0.2-0.2
		c0-0.1,0-0.2,0-0.3c0-0.1,0.1-0.2,0.2-0.3c0.1-0.1,0.2-0.1,0.2-0.2c0.2-0.2,0.4-0.3,0.6-0.5c0.2-0.2,0.4-0.4,0.6-0.5
		c0.1-0.1,0.2-0.1,0.3-0.2c0.1-0.1,0.2-0.1,0.3-0.2c0,0,0.1-0.1,0.1-0.1s0.1-0.1,0.1-0.1c0,0,0.1-0.1,0.1-0.1c0,0,0.1,0,0.1,0
		c0.1,0,0.1,0.1,0.2,0.1c0.1,0.1,0.1,0.1,0.2,0.2L29.5,13z M29.9,8.7c0-0.1,0-0.1,0-0.2c0-0.1,0-0.1,0-0.2c0-0.1,0.1-0.2,0.1-0.3
		C30.1,8,30.1,8,30.2,8c0.1,0,0.1,0,0.2,0c0.1,0,0.2,0.1,0.3,0.2c0,0.1,0,0.2,0.1,0.2c0,0.1,0,0.2,0,0.2v2.9c0,0,0,0,0,0.1
		c0,0,0,0.1,0,0.1c0,0,0,0.1-0.1,0.2c0,0.1-0.1,0.1-0.1,0.1c0,0-0.1,0-0.1,0c0,0-0.1,0-0.1,0c-0.1,0-0.2,0-0.3-0.1c0,0,0,0-0.1-0.1
		c0,0,0-0.1-0.1-0.1c-0.1-0.2-0.1-0.3-0.1-0.5c0-0.2,0-0.4,0-0.6c0,0,0-0.1,0-0.2c0-0.1,0-0.2,0-0.4c0-0.1,0-0.3,0-0.5s0-0.3,0-0.5
		c0-0.1,0-0.3,0-0.4C29.9,8.8,29.9,8.7,29.9,8.7z"/>
</g>
<g>
	<path class="st2" d="M45.6,12.1c0,0.1,0,0.2-0.1,0.3c-0.1,0-0.1,0.1-0.3,0.1c-0.5,0.1-1.1,0.1-1.7,0.2c-0.6,0-1.1,0.1-1.7,0.1v2
		h4.1c0.1,0,0.2,0,0.3,0.1c0.1,0,0.1,0.1,0.1,0.3v1.7c0,0.1,0,0.2-0.1,0.3c-0.1,0-0.1,0.1-0.3,0.1H35.3c-0.1,0-0.2,0-0.3-0.1
		C35,17,35,16.9,35,16.8v-1.7c0-0.1,0-0.2,0.1-0.3c0.1,0,0.1-0.1,0.3-0.1h4.1v-1.9c-0.2,0-0.5,0-0.7,0c-0.2,0-0.5,0-0.7,0
		c-0.8,0-1.4-0.2-1.7-0.7c-0.4-0.5-0.5-1.3-0.5-2.3V4.5c0-0.1,0-0.2,0.1-0.3c0.1,0,0.1-0.1,0.3-0.1h9c0.1,0,0.2,0,0.3,0.1
		c0.1,0,0.1,0.1,0.1,0.3v1.7c0,0.1,0,0.2-0.1,0.3c-0.1,0-0.1,0.1-0.3,0.1h-6.9v3.1c0,0.3,0.1,0.6,0.2,0.7c0.1,0.2,0.4,0.2,0.7,0.2
		c0.9,0,1.9-0.1,2.9-0.1c1-0.1,2.1-0.1,3.1-0.3c0.1,0,0.2,0,0.2,0.1c0,0.1,0.1,0.2,0.1,0.3L45.6,12.1z"/>
	<path class="st2" d="M47.3,12.4c0-0.1,0-0.2,0.1-0.3c0.1,0,0.1-0.1,0.3-0.1h10.7c0.1,0,0.2,0,0.3,0.1c0.1,0,0.1,0.1,0.1,0.3v1.7
		c0,0.1,0,0.2-0.1,0.3c-0.1,0-0.1,0.1-0.3,0.1h-4.1v2.7c0,0.1,0,0.2-0.1,0.3c-0.1,0-0.1,0.1-0.3,0.1h-1.8c-0.1,0-0.2,0-0.3-0.1
		c-0.1,0-0.1-0.1-0.1-0.3v-2.7h-4.1c-0.1,0-0.2,0-0.3-0.1c-0.1,0-0.1-0.1-0.1-0.3V12.4z M53,4c0.9,0,1.7,0.1,2.3,0.3
		c0.6,0.2,1.1,0.5,1.5,0.8c0.4,0.3,0.7,0.7,0.8,1.2c0.2,0.4,0.3,0.9,0.3,1.4c0,0.5-0.1,0.9-0.3,1.4c-0.2,0.4-0.5,0.8-0.8,1.2
		c-0.4,0.3-0.9,0.6-1.5,0.8s-1.4,0.3-2.3,0.3s-1.7-0.1-2.3-0.3c-0.6-0.2-1.1-0.5-1.5-0.8c-0.4-0.3-0.7-0.7-0.8-1.2
		C48.1,8.6,48,8.1,48,7.6c0-0.5,0.1-0.9,0.3-1.4c0.2-0.4,0.5-0.8,0.8-1.2c0.4-0.3,0.9-0.6,1.5-0.8C51.3,4.1,52.1,4,53,4z M53,9
		c0.3,0,0.6,0,0.9,0c0.3,0,0.6-0.1,0.8-0.2c0.2-0.1,0.4-0.2,0.6-0.4c0.1-0.2,0.2-0.4,0.2-0.7c0-0.3-0.1-0.5-0.2-0.7
		c-0.1-0.2-0.3-0.3-0.6-0.4c-0.2-0.1-0.5-0.2-0.8-0.2s-0.6,0-0.9,0c-0.3,0-0.6,0-0.9,0s-0.6,0.1-0.8,0.2c-0.2,0.1-0.4,0.2-0.6,0.4
		c-0.1,0.2-0.2,0.4-0.2,0.7c0,0.3,0.1,0.5,0.2,0.7c0.1,0.2,0.3,0.3,0.6,0.4c0.2,0.1,0.5,0.2,0.8,0.2C52.4,9,52.7,9,53,9z"/>
	<path class="st2" d="M66.8,14.9c0,0.6-0.1,1-0.3,1.3c-0.2,0.3-0.6,0.4-1,0.4h-4.2c-0.5,0-0.8-0.1-1-0.4c-0.2-0.3-0.3-0.7-0.3-1.3
		V4.5c0-0.1,0-0.2,0.1-0.3c0.1,0,0.1-0.1,0.3-0.1h6.3c0.1,0,0.2,0,0.3,0.1c0.1,0,0.1,0.1,0.1,0.3V14.9z M64.1,14.3
		c0.1,0,0.2,0,0.3-0.1c0.1-0.1,0.1-0.2,0.1-0.4V6.3h-2.3v7.6c0,0.2,0,0.3,0.1,0.4c0.1,0.1,0.1,0.1,0.3,0.1H64.1z M68.5,17.3
		c-0.1,0-0.2,0-0.3-0.1c-0.1,0-0.1-0.1-0.1-0.3V4.5c0-0.1,0-0.2,0.1-0.3c0.1,0,0.1-0.1,0.3-0.1h1.8c0.1,0,0.2,0,0.3,0.1
		c0.1,0,0.1,0.1,0.1,0.3v12.4c0,0.1,0,0.2-0.1,0.3c-0.1,0-0.1,0.1-0.3,0.1H68.5z"/>
</g>
</svg>
